<svg viewBox="0 0 24 24" width="41" height="41" xmlns="http://www.w3.org/2000/svg" xmlns:xlink="http://www.w3.org/1999/xlink">
    <mask id="0_a" style="mask-type:alpha" width="18" height="18" maskUnits="userSpaceOnUse" x="3" y="3">
        <path fill="#273b4a" d="M3.699 11.073c0-3.498 0-5.247 1.08-6.333s2.817-1.087 6.293-1.087h1.843c3.476 0 5.214 0 6.293 1.087 1.08 1.086 1.08 2.835 1.08 6.333v1.854c0 3.498 0 5.247-1.08 6.333s-2.817 1.087-6.293 1.087h-1.843c-3.476 0-5.214 0-6.293-1.087-1.08-1.086-1.08-2.835-1.08-6.333z" />
    </mask>
    <g stroke="#fff" fill="none">
        <g mask="url(#0_a)">
            <path fill="rgba(184, 184, 184, 0)" d="M5.92 12.063 5.779 12.17c-0.903 0.681-1.355 1.022-1.626 1.442a3.687 2.782 0 0 0-0.23 0.452c-0.17 0.448-0.137 0.93-0.07 1.893l0.307 4.39h16.128v-3.299c0-1.01 0-1.514-0.22-1.972a3.681 2.778 0 0 0-0.215-0.366c-0.304-0.43-0.802-0.767-1.797-1.443l-0.197-0.134c-0.826-0.561-1.239-0.842-1.71-0.921a1.842 1.39 0 0 0-0.898 0.017c-0.465 0.099-0.858 0.396-1.644 0.988-0.583 0.44-0.874 0.66-1.187 0.69a0.922 0.696 0 0 1-0.562-0.082c-0.276-0.115-0.441-0.405-0.77-0.986-0.702-1.235-1.052-1.852-1.655-2.08a1.843 1.391 0 0 0-0.981-0.143C7.78 10.66 7.16 11.128 5.92 12.063z" />
        </g>
        <path stroke-width="1.2" d="M3.699 11.073c0-3.498 0-5.247 1.08-6.333s2.817-1.087 6.293-1.087h1.843c3.476 0 5.214 0 6.293 1.087 1.08 1.086 1.08 2.835 1.08 6.333v1.854c0 3.498 0 5.247-1.08 6.333s-2.817 1.087-6.293 1.087h-1.843c-3.476 0-5.214 0-6.293-1.087-1.08-1.086-1.08-2.835-1.08-6.333z" />
        <ellipse fill="#fff" paint-order="stroke" cx="16.141" cy="7.826" rx="1.382" ry="1.391" />
    </g>
</svg>