<svg viewBox="0 0 24 24" width="41" height="41" xmlns="http://www.w3.org/2000/svg" xmlns:xlink="http://www.w3.org/1999/xlink">
    <path fill="#fff" d="M19.025 14.489c-0.089 0.063-1.929 2.05-1.929 3.445 0 1.47 0.915 2.41 1.929 2.461 0.873 0.044 1.928-0.877 1.928-2.46 0-1.477-1.84-3.383-1.928-3.446M8.982 20.395a1.896 1.896 0 0 0 2.727 0l6.75-6.89-0.681-0.697-7.432-7.587-2.211-2.257L6.77 4.356 8.981 6.613l-5.386 5.5a1.98 1.98 0 0 0-0.565 1.391c0 0.526 0.2 1.02 0.565 1.392zM10.346 8.005l5.387 5.5H4.959z" />
</svg>