<svg viewBox="0 0 24 24" fill="#fff" width="41" height="41" xmlns="http://www.w3.org/2000/svg" xmlns:xlink="http://www.w3.org/1999/xlink">
    <g fill-rule="evenodd">
        <path d="M4.539 4.362v15.262c0 0.364 0 0.728 0.293 1.02 0.293 0.294 0.657 0.294 1.02 0.294H18.18c0.364 0 0.727 0 1.02-0.293s0.293-0.657 0.293-1.02V8.846c0-0.363 0-0.726-0.291-1.018-0.292-0.293-0.654-0.294-1.017-0.296L13.9 7.516c-0.363-2e-3-0.725-3e-3-1.017-0.296-0.291-0.292-0.291-0.655-0.291-1.018V4.408c0-0.362 0-0.723-0.29-1.015s-0.651-0.296-1.012-0.299L5.865 3.048c-0.366-4e-3-0.733-7e-3-1.03 0.287C4.54 3.628 4.54 3.995 4.54 4.362M16.458 17.582H7.574c-0.203 0-0.407 0-0.57-0.165a0.56 0.56 0.785 0 1-0.165-0.395 0.56 0.56 0.785 0 1 0.164-0.396c0.164-0.164 0.368-0.164 0.571-0.164h8.883c0.203 0 0.407 0 0.57 0.164a0.56 0.56 0.785 0 1 0.165 0.396 0.56 0.56 0.785 0 1-0.164 0.395c-0.164 0.164-0.368 0.164-0.571 0.164M16.457 15.343H7.574c-0.203 0-0.407 0-0.57-0.164a0.56 0.56 0.785 0 1-0.165-0.396 0.56 0.56 0.785 0 1 0.164-0.396c0.164-0.163 0.368-0.163 0.571-0.163h8.883c0.203 0 0.407 0 0.57 0.164a0.56 0.56 0.785 0 1 0.165 0.395 0.56 0.56 0.785 0 1-0.164 0.396c-0.164 0.164-0.368 0.164-0.571 0.164M17.192 11.427a0.56 0.56 0.785 0 1-0.164 0.395c-0.164 0.164-0.368 0.164-0.571 0.164H7.574c-0.203 0-0.407 0-0.57-0.164a0.56 0.56 0.785 0 1-0.165-0.395 0.56 0.56 0.785 0 1 0.164-0.396c0.164-0.164 0.368-0.164 0.571-0.164h8.883c0.203 0 0.407 0 0.57 0.164a0.56 0.56 0.785 0 1 0.165 0.396" />
        <path d="M13.74 3.5v2.455c0 0.073 0 0.146 0.06 0.205 0.058 0.058 0.13 0.058 0.204 0.058h4.25c0.183 0 0.365 0 0.405-0.148s-0.118-0.24-0.275-0.331l-4.242-2.47c-0.1-0.058-0.2-0.116-0.3-0.058-0.101 0.057-0.101 0.173-0.101 0.289" />
    </g>
</svg>