<svg viewBox="0 0 24 24" width="41" height="41" xmlns="http://www.w3.org/2000/svg" xmlns:xlink="http://www.w3.org/1999/xlink">
    <path fill="currentColor" d="M19.7322 3.6697c-0.7793-0.7743-2.0389-0.7743-2.8182 0l-0.8682 0.8627 3.4836 3.4612 0.8682-0.8626c0.7793-0.7743 0.7793-2.0259 0-2.8001zM9.0857 11.4478c-0.2171 0.2156-0.3843 0.4808-0.4804 0.7742l-1.0532 3.1396c-0.1032 0.304-0.0214 0.6399 0.2063 0.8697 0.2278 0.2298 0.5658 0.3076 0.8754 0.205l3.1598-1.0465c0.2918-0.0954 0.5586-0.2616 0.7792-0.4773l5.7503-5.7204-3.4836-3.4612zM6.3671 5.1652c-1.8859 0-3.416 1.5203-3.416 3.3941l0 9.0508c0 1.8738 1.5301 3.3941 3.416 3.3941l9.1093 0c1.8859 0 3.416-1.5203 3.416-3.3941l0-3.394c0-0.6258-0.5088-1.1314-1.1386-1.1314-0.6299 0-1.1387 0.5056-1.1387 1.1314l0 3.394c0 0.6258-0.5088 1.1314-1.1387 1.1314l-9.1093 0c-0.6298 0-1.1386-0.5056-1.1386-1.1314l0-9.0508c0-0.6258 0.5088-1.1314 1.1386-1.1314l3.416 0c0.6298 0 1.1387-0.5055 1.1387-1.1313 0-0.6258-0.5089-1.1314-1.1387-1.1314z" />
</svg>