<svg viewBox="0 0 24 24" fill="#fff" width="41" height="41" xmlns="http://www.w3.org/2000/svg" xmlns:xlink="http://www.w3.org/1999/xlink">
    <path d="M18.294 18.6817a2.0468 2.0279 0 0 0-0.5303 0.904l-3.1368-3.1078 1.7861-1.7696 3.1368 3.1078a2.0468 2.0279 0 0 0-0.9125 0.5254zM9.9899 10.7237 6.5633 6.8813l3.8783 3.3949 3.6051 3.1554 0.5928-0.5874c-3.5956-3.9106-5.4694-6.6055-6.9976-8.3453 0 0-1.573 0.5428-4.8702-1.4985 0 0 0.2805 4.7393 10.0098 11.6847l0.3937-0.39zM16.1547 13.9566a0.5731 0.5678 0 0 0-0.8091-0.8015l-2.2864 2.2652a0.5731 0.5678 0 0 0 0.809 0.8016zM21.0411 18.8451a1.3403 1.3279 0 0 0-1.8954 0l-0.3433 0.3403a1.3403 1.3279 0 0 0 0 1.8778z" />
</svg>