<svg viewBox="0 0 24 24" width="41" height="41" xmlns="http://www.w3.org/2000/svg" xmlns:xlink="http://www.w3.org/1999/xlink">
    <path fill="#fff" d="M12.0247 3.03c-0.8623 0-1.4323 0.6473-1.756 1.2287-0.3292 0.5898-0.5039 1.2802-0.5274 1.7252-0.046 0.8853 0.0784 1.6606 0.4916 2.2205 0.43 0.5838 1.0751 0.8075 1.7918 0.8075 0.7268 0 1.3696-0.25 1.7974-0.8338 0.4133-0.5647 0.5466-1.334 0.4928-2.2002-0.0258-0.4211-0.2027-1.1078-0.5308-1.7C13.4627 3.6976 12.8926 3.03 12.0247 3.03zM4.2023 12.3594l3.587 3.5174a1.1964 1.1199 90 0 0 1.5947-0.0874l0.9698-1.1664a2.3928 2.2398 90 0 1 3.3508 0l0.9687 1.1664a1.1964 1.1199 90 0 0 1.5947 0.0874l3.5881-3.5174a2.3928 2.2398 90 0 0-2.2274-2.1415l-11.199 0a2.3928 2.2398 90 0 0-2.2274 2.1415zM19.8684 13.9709 17.025 16.7585a2.3928 2.2398 90 0 1-3.1883-0.1747l-0.9698-1.1676a1.1964 1.1199 90 0 0-1.6754 0l-0.9698 1.1676a2.3928 2.2398 90 0 1-3.1895 0.1747L4.19 13.9709l0 5.818-0.56 0a0.5982 0.5599 90 0 0 0 1.1964l16.7984 0a0.5982 0.5599 90 0 0 0-1.1964l-0.56 0z" />
</svg>