<svg viewBox="0 0 24 24" width="41" height="41" xmlns="http://www.w3.org/2000/svg" xmlns:xlink="http://www.w3.org/1999/xlink">
    <path fill="#fff" d="M12.6661 11.9544l1.9313 0 0 1.3661-1.9313 0zM21.035 7.1731l0 11.6117a0.683 0.6438 90 0 1-0.6437 0.683l-14.8067 0a2.7322 2.5751 90 0 1-2.575-2.7321l0-9.5626a2.7322 2.5751 90 0 1 2.575-2.7321l1.2876 0a0.683 0.6438 90 0 1 0.6437 0.683l0 1.3661 12.8754 0a0.683 0.6438 90 0 1 0.6437 0.683M6.2284 5.8071l-0.6438 0a1.3661 1.2875 90 0 0-1.2875 1.366l0 7.1967a2.7168 2.5606 90 0 1 1.2875-0.3663l0.6438 0zM15.8849 13.3205l0-1.3661 1.2875 0a0.683 0.6438 90 0 0 0-1.3661l-1.2875 0 0-0.683a0.683 0.6438 90 0 0-1.2875 0l0 0.683-1.9313 0 0-0.683a0.683 0.6438 90 0 0-1.2876 0l0 0.683-1.2875 0a0.683 0.6438 90 0 0 0 1.3661l1.2875 0 0 1.3661-1.2875 0a0.683 0.6438 90 0 0 0 1.366l1.2875 0 0 0.6831a0.683 0.6438 90 0 0 1.2876 0l0-0.6831 1.9313 0 0 0.6831a0.683 0.6438 90 0 0 1.2875 0l0-0.6831 1.2875 0a0.683 0.6438 90 0 0 0-1.366z" />
</svg>
