<svg viewBox="0 0 24 24" width="41" height="41" xmlns="http://www.w3.org/2000/svg" xmlns:xlink="http://www.w3.org/1999/xlink">
    <path fill="#fff" d="M9.073 13.416l2.966 2.054 2.86-1.998 6.41 6.404a1.7 1.7 0 0 1-0.536 0.084H3.302c-0.23 0-0.45-0.045-0.653-0.127zM22.52 8.153v10.038c0 0.262-0.056 0.51-0.157 0.735l-6.283-6.277zM1.554 8.21l6.334 4.385-6.222 6.218a1.765 1.743 90 0 1-0.112-0.622zM20.773 4.04c0.964 0 1.747 0.791 1.747 1.769v0.622l-10.485 7.318-10.48-7.258V5.81c0-0.977 0.781-1.77 1.747-1.77z" fill-rule="evenodd" />
</svg>