<svg viewBox="0 0 24 24" width="41" height="41" xmlns="http://www.w3.org/2000/svg" xmlns:xlink="http://www.w3.org/1999/xlink">
    <path fill="#fff" d="M11.504 3.135a1.024 1 90 0 1 0.992 0l3.556 2.08L12 7.531 7.948 5.214zM7 7.019v3.432l-3.158 1.848 4.141 2.257L11 12.792V9.305zM3 14.159v3.906a1.024 1 90 0 0 0.504 0.89L7 21v-4.659zM9 21l3-1.755L15 21v-4.68l-3-1.754-3 1.755zM17 21l3.496-2.045A1.024 1 90 0 0 21 18.065V14.16l-4 2.181zM20.158 12.299 17 10.45V7.018l-4 2.287v3.486l3.017 1.764z" />
</svg>