<svg viewBox="0 0 24 24" fill="currentColor" width="41" height="41" xmlns="http://www.w3.org/2000/svg" xmlns:xlink="http://www.w3.org/1999/xlink">
    <g fill="#fff">
        <path d="M8.406 14.227v3.35h7.12v-3.35h-1.187v0.558a0.593 0.558 0 0 1-1.186 0v-0.558z" />
        <path d="M9.593 5.295v0.38a7.093 6.675 0 0 0-1.552 0.73L7.547 5.013a1.187 1.117 0 0 0-2.075-0.317L4.56 5.842a1.187 1.117 0 0 0-0.177 1.024l0.953 2.688a7.101 6.682 0 0 0-0.488 2.44v6.141a2.966 2.791 0 0 0 2.966 2.791h8.306a2.966 2.791 0 0 0 2.966-2.79v-6.142a6.4 6.4 0 0 0-0.486-2.44l0.95-2.688a1.187 1.117 0 0 0-0.176-1.024l-0.913-1.146a1.187 1.117 0 0 0-2.077 0.317l-0.492 1.392a7.09 6.672 0 0 0-1.552-0.73v-0.38a2.373 2.233 0 1 0-4.746 0M10.78 5.295a1.187 1.117 0 0 1 2.374 0v0.093a7.167 6.744 0 0 0-2.374 0zM17.83 8.193a7.162 6.74 0 0 0-0.95-1.047l0.63-1.78 0.914 1.146zM7.053 7.146a7.156 6.734 0 0 0-0.95 1.047l-0.596-1.68 0.913-1.147zM7.266 11.358a4.746 4.466 0 0 1 9.398 0 0.593 0.558 0 1 1-1.175 0.158 3.56 3.35 0 0 0-7.048 0 0.593 0.558 0 1 1-1.175-0.158M7.219 13.669a0.593 0.558 0 0 1 0.593-0.558h8.306a0.593 0.558 0 0 1 0.593 0.558v4.466a0.593 0.558 0 0 1-0.593 0.558H7.813a0.593 0.558 0 0 1-0.593-0.558z" />
    </g>
</svg>