<svg viewBox="0 0 24 24" width="41" height="41" xmlns="http://www.w3.org/2000/svg" xmlns:xlink="http://www.w3.org/1999/xlink">
    <path fill="#fff" d="M13.074 5.598a1.588 1.54 0 0 0-3.176 0zM8.839 5.598a2.647 2.567 0 0 1 5.294 0h5.294a0.53 0.513 0 0 1 0 1.027h-1.116l-0.513 4.308a5.824 5.647 0 0 0-6.04 9.04H9.081a3.177 3.08 0 0 1-3.156-2.727L4.661 6.625H3.545a0.53 0.513 0 0 1 0-1.027zM21.015 16.38a4.765 4.62 0 1 1-9.529 0 4.765 4.62 0 0 1 9.53 0M18.215 15.204a0.53 0.514 0 0 0-0.75-0.727l-1.213 1.177-1.214-1.177a0.53 0.514 0 0 0-0.75 0.727l1.215 1.176-1.214 1.177a0.53 0.514 0 0 0 0.75 0.727l1.213-1.178 1.213 1.178a0.53 0.514 0 0 0 0.75-0.727L17 16.38z" />
</svg>