<svg viewBox="0 0 24 24" fill="#fff" width="41" height="41" xmlns="http://www.w3.org/2000/svg" xmlns:xlink="http://www.w3.org/1999/xlink">
    <path clip-rule="evenodd" d="M6.365 6.397A3.38 3.363 0 0 1 12 3.89a3.38 3.363 0 0 1 5.443 3.628h1.319a2.254 2.242 0 1 1 0 4.484h-5.635v-1.121a1.127 1.121 0 1 0-2.254 0v1.121H5.238a2.254 2.242 0 1 1 0-4.484h1.319a3.4 3.4 0 0 1-0.192-1.121M10.873 7.517v-1.12a1.127 1.121 0 1 0-1.127 1.12zM14.253 7.517a1.127 1.121 0 1 0-1.126-1.12v1.12z" fill-rule="evenodd" />
    <path d="M10.873 13.123H4.111v5.606a2.254 2.242 0 0 0 2.254 2.242h4.508zM13.127 20.971h4.508a2.254 2.242 0 0 0 2.254-2.242v-5.606h-6.762z" />
</svg>