<svg viewBox="0 0 24 24" width="41" height="41" xmlns="http://www.w3.org/2000/svg" xmlns:xlink="http://www.w3.org/1999/xlink">
    <path fill="#ffb700" d="M20.946 9.802a0.767 0.726 90 0 0-0.589-0.53l-5.316-0.818-2.384-5.09a0.809 0.765 90 0 0-1.314 0l-2.384 5.09-5.316 0.819a0.767 0.726 90 0 0-0.589 0.529 0.778 0.736 90 0 0 0.177 0.798l3.864 3.96-0.912 5.598a0.788 0.746 90 0 0 0.294 0.767 0.778 0.736 90 0 0 0.775 0.052L12 18.334l4.757 2.643a0.757 0.716 90 0 0 0.344 0.093 0.819 0.775 90 0 0 0.431-0.145 0.788 0.746 90 0 0 0.294-0.767l-0.922-5.598 3.855-3.96a0.778 0.736 90 0 0 0.187-0.798" />
</svg>